# xmcd
#
# Track frame offsets: 
#        150
#        17582
#        32895
#        48837
#        63462
#        77000
#        94300
#        108402
#        118412
#        130637
#        138347
#        161925
#
# Disc length: 2317 seconds
#
# Revision: 3
# Processed by: cddbd v1.5.2PL0 Copyright (c) Steve Scherf et al.
# Submitted via: ExactAudioCopy v1.0b3
#
DISCID=a2090b0c,a3091c0c
DTITLE=Kinky Friedman - Lasso From El Paso
DYEAR=1976
DGENRE=Country
TTITLE0=Sold American
TTITLE1=Twinkle
TTITLE2=Ahab the Arab
TTITLE3=Dear Abbie
TTITLE4=Kinky
TTITLE5=Lady Yesterday
TTITLE6=Catfish
TTITLE7=Men's Room, L.A.
TTITLE8=Bananas and Cream
TTITLE9=Ol' Ben Lucas
TTITLE10=The Ballad of Ira Hayes
TTITLE11=Waitret, Please, Waitret
EXTD=
EXTT0=
EXTT1=
EXTT2=
EXTT3=
EXTT4=
EXTT5=
EXTT6=
EXTT7=
EXTT8=
EXTT9=
EXTT10=
EXTT11=
PLAYORDER=
